<svg width="12" height="23" viewBox="0 0 12 23" fill="none" xmlns="http://www.w3.org/2000/svg">
<g filter="url(#filter0_d_4519_11576)">
<mask id="path-1-outside-1_4519_11576" maskUnits="userSpaceOnUse" x="4" y="0" width="4" height="15" fill="black">
<rect fill="white" x="4" width="4" height="15"/>
<path d="M6.9125 1.675V13.275H5.425V1.675H6.9125Z"/>
</mask>
<path d="M6.9125 1.675V13.275H5.425V1.675H6.9125Z" fill="#BCBCBC"/>
<path d="M6.9125 1.675H7.9125V0.675H6.9125V1.675ZM6.9125 13.275V14.275H7.9125V13.275H6.9125ZM5.425 13.275H4.425V14.275H5.425V13.275ZM5.425 1.675V0.675H4.425V1.675H5.425ZM6.9125 1.675H5.9125V13.275H6.9125H7.9125V1.675H6.9125ZM6.9125 13.275V12.275H5.425V13.275V14.275H6.9125V13.275ZM5.425 13.275H6.425V1.675H5.425H4.425V13.275H5.425ZM5.425 1.675V2.675H6.9125V1.675V0.675H5.425V1.675Z" fill="black" mask="url(#path-1-outside-1_4519_11576)"/>
</g>
<defs>
<filter id="filter0_d_4519_11576" x="0.425781" y="0.674805" width="11.4863" height="21.6001" filterUnits="userSpaceOnUse" color-interpolation-filters="sRGB">
<feFlood flood-opacity="0" result="BackgroundImageFix"/>
<feColorMatrix in="SourceAlpha" type="matrix" values="0 0 0 0 0 0 0 0 0 0 0 0 0 0 0 0 0 0 127 0" result="hardAlpha"/>
<feOffset dy="4"/>
<feGaussianBlur stdDeviation="2"/>
<feComposite in2="hardAlpha" operator="out"/>
<feColorMatrix type="matrix" values="0 0 0 0 0 0 0 0 0 0 0 0 0 0 0 0 0 0 0.25 0"/>
<feBlend mode="normal" in2="BackgroundImageFix" result="effect1_dropShadow_4519_11576"/>
<feBlend mode="normal" in="SourceGraphic" in2="effect1_dropShadow_4519_11576" result="shape"/>
</filter>
</defs>
</svg>
